<svg xmlns="http://www.w3.org/2000/svg" xmlns:xlink="http://www.w3.org/1999/xlink" width="86px" height="86px" viewBox="0 0 86 86" version="1.1">
    <!-- Generator: Sketch 63.1 (92452) - https://sketch.com -->
    <title>logo-bluewallet</title>
    <desc>Created with Sketch.</desc>
    <defs>
        <filter x="-15.6%" y="-15.4%" width="131.2%" height="130.8%" filterUnits="objectBoundingBox" id="filter-1">
            <feOffset dx="0" dy="2" in="SourceAlpha" result="shadowOffsetOuter1"/>
            <feGaussianBlur stdDeviation="2" in="shadowOffsetOuter1" result="shadowBlurOuter1"/>
            <feColorMatrix values="0 0 0 0 0   0 0 0 0 0   0 0 0 0 0  0 0 0 0.137729458 0" type="matrix" in="shadowBlurOuter1" result="shadowMatrixOuter1"/>
            <feMerge>
                <feMergeNode in="shadowMatrixOuter1"/>
                <feMergeNode in="SourceGraphic"/>
            </feMerge>
        </filter>
        <linearGradient x1="50%" y1="2.83824061%" x2="50%" y2="100%" id="linearGradient-2">
            <stop stop-color="#174697" offset="0%"/>
            <stop stop-color="#0C2550" offset="100%"/>
        </linearGradient>
        <linearGradient x1="50%" y1="0%" x2="50%" y2="97.8843027%" id="linearGradient-3">
            <stop stop-color="#3F78DC" offset="0%"/>
            <stop stop-color="#2F5FB3" offset="100%"/>
        </linearGradient>
        <linearGradient x1="50%" y1="2.72534321%" x2="50%" y2="100%" id="linearGradient-4">
            <stop stop-color="#8BD7F9" offset="0%"/>
            <stop stop-color="#68BBE1" offset="100%"/>
        </linearGradient>
    </defs>
    <g id="bluewallet" stroke="none" stroke-width="1" fill="none" fill-rule="evenodd">
        <g id="bluewallet-site" transform="translate(-154.000000, -46.000000)">
            <g id="header">
                <g id="logo-bluewallet">
                    <g transform="translate(158.000000, 48.000000)">
                        <g id="Group-Copy" filter="url(#filter-1)">
                            <path d="M21.7930242,9.33204017e-16 L55.2069758,8.80464262e-16 C62.7848851,-5.11575092e-16 65.5328181,0.789017695 68.3031885,2.27062798 C71.0735589,3.75223827 73.2477617,5.92644115 74.729372,8.69681152 C76.2109823,11.4671819 77,14.2151149 77,21.7930242 L77,55.2069758 C77,62.7848851 76.2109823,65.5328181 74.729372,68.3031885 C73.2477617,71.0735589 71.0735589,73.2477617 68.3031885,74.729372 C65.5328181,76.2109823 62.7848851,77 55.2069758,77 L21.7930242,77 C14.2151149,77 11.4671819,76.2109823 8.69681152,74.729372 C5.92644115,73.2477617 3.75223827,71.0735589 2.27062798,68.3031885 C0.789017695,65.5328181 -7.12743439e-16,62.7848851 1.2266921e-15,55.2069758 L5.86976174e-16,21.7930242 C-3.41050061e-16,14.2151149 0.789017695,11.4671819 2.27062798,8.69681152 C3.75223827,5.92644115 5.92644115,3.75223827 8.69681152,2.27062798 C11.4671819,0.789017695 14.2151149,-5.42218408e-16 21.7930242,9.33204017e-16 Z" id="Rectangle-Copy" fill="url(#linearGradient-2)"/>
                            <path d="M21.7930242,18 L55.2069758,18 C62.7848851,18 65.5328181,18.7890177 68.3031885,20.270628 C71.0735589,21.7522383 73.2477617,23.9264411 74.729372,26.6968115 C76.2109823,29.4671819 77,32.2151149 77,39.7930242 L77,54.2069758 C77,61.7848851 76.2109823,64.5328181 74.729372,67.3031885 C73.2477617,70.0735589 71.0735589,72.2477617 68.3031885,73.729372 C65.5328181,75.2109823 62.7848851,76 55.2069758,76 L21.7930242,76 C14.2151149,76 11.4671819,75.2109823 8.69681152,73.729372 C5.92644115,72.2477617 3.75223827,70.0735589 2.27062798,67.3031885 C0.789017695,64.5328181 -7.12743439e-16,61.7848851 1.2266921e-15,54.2069758 L5.86976174e-16,39.7930242 C-3.41050061e-16,32.2151149 0.789017695,29.4671819 2.27062798,26.6968115 C3.75223827,23.9264411 5.92644115,21.7522383 8.69681152,20.270628 C11.4671819,18.7890177 14.2151149,18 21.7930242,18 Z" id="Rectangle-Copy-2" fill="url(#linearGradient-3)"/>
                            <path d="M19.3957086,37 L57.6042914,37 C62.305422,37 65.5328181,37.7890177 68.3031885,39.270628 C71.0735589,40.7522383 73.2477617,42.9264411 74.729372,45.6968115 C76.2109823,48.4671819 77,51.694578 77,56.3957086 L77,58.6042914 C77,63.305422 76.2109823,66.5328181 74.729372,69.3031885 C73.2477617,72.0735589 71.0735589,74.2477617 68.3031885,75.729372 C65.5328181,77.2109823 62.305422,78 57.6042914,78 L19.3957086,78 C14.694578,78 11.4671819,77.2109823 8.69681152,75.729372 C5.92644115,74.2477617 3.75223827,72.0735589 2.27062798,69.3031885 C0.789017695,66.5328181 -5.90033101e-16,63.305422 6.13140415e-16,58.6042914 L2.93389689e-16,56.3957086 C-2.82332764e-16,51.694578 0.789017695,48.4671819 2.27062798,45.6968115 C3.75223827,42.9264411 5.92644115,40.7522383 8.69681152,39.270628 C11.4671819,37.7890177 14.694578,37 19.3957086,37 Z" id="Rectangle-Copy-3" fill="url(#linearGradient-4)"/>
                            <path d="M41.9496127,60.1953125 C41.9496127,60.970056 41.8649781,61.6666636 41.6957064,62.2851562 C41.5264347,62.9036489 41.2822966,63.4309874 40.9632845,63.8671875 C40.6442725,64.3033876 40.2520239,64.6386707 39.7865267,64.8730469 C39.3210296,65.107423 38.7920635,65.2246094 38.1996127,65.2246094 C37.9066425,65.2246094 37.6332077,65.1969404 37.3793002,65.1416016 C37.1253927,65.0862627 36.8828821,64.9967454 36.6517611,64.8730469 C36.4206402,64.7493483 36.1927779,64.5930999 35.9681674,64.4042969 C35.7435569,64.2154938 35.514067,63.9876315 35.2796908,63.7207031 L35.2796908,64.6679688 C35.2796908,64.7395837 35.2617873,64.7998044 35.2259799,64.8486328 C35.1901724,64.8974612 35.1315792,64.9381509 35.0501986,64.9707031 C34.968818,65.0032554 34.8597696,65.0260416 34.7230502,65.0390625 C34.5863307,65.0520834 34.4203168,65.0585938 34.2250033,65.0585938 C34.0231794,65.0585938 33.8555378,65.0520834 33.7220736,65.0390625 C33.5886094,65.0260416 33.4811886,65.0032554 33.399808,64.9707031 C33.3184274,64.9381509 33.2614618,64.8974612 33.2289095,64.8486328 C33.1963573,64.7998044 33.1800814,64.7395837 33.1800814,64.6679688 L33.1800814,51.8261719 C33.1800814,51.7610674 33.1996125,51.7024742 33.2386752,51.6503906 C33.2777379,51.598307 33.344469,51.5543622 33.4388705,51.5185547 C33.533272,51.4827472 33.6585963,51.4550782 33.814847,51.4355469 C33.9710978,51.4160155 34.1696635,51.40625 34.4105502,51.40625 C34.6514368,51.40625 34.8500025,51.4160155 35.0062533,51.4355469 C35.1625041,51.4550782 35.2878283,51.4827472 35.3822299,51.5185547 C35.4766314,51.5543622 35.5433625,51.598307 35.5824252,51.6503906 C35.6214879,51.7024742 35.6410189,51.7610674 35.6410189,51.8261719 L35.6410189,56.640625 C35.8623742,56.4192697 36.0837261,56.2304695 36.3050814,56.0742188 C36.5264367,55.917968 36.7477886,55.7893885 36.9691439,55.6884766 C37.1904992,55.5875646 37.4183615,55.5143231 37.6527377,55.46875 C37.8871138,55.4231769 38.1345072,55.4003906 38.3949252,55.4003906 C39.0394596,55.4003906 39.5863292,55.5289701 40.0355502,55.7861328 C40.4847712,56.0432956 40.8509784,56.3899718 41.134183,56.8261719 C41.4173875,57.262372 41.6240912,57.771807 41.7543002,58.3544922 C41.8845092,58.9371774 41.9496127,59.550778 41.9496127,60.1953125 Z M39.4007845,60.3710938 C39.4007845,60 39.3731156,59.6419288 39.3177767,59.296875 C39.2624379,58.9518212 39.1664102,58.6458347 39.0296908,58.3789062 C38.8929714,58.1119778 38.7155643,57.8987638 38.4974642,57.7392578 C38.2793642,57.5797518 38.0043018,57.5 37.6722689,57.5 C37.5095077,57.5 37.3500041,57.5227862 37.1937533,57.5683594 C37.0375025,57.6139325 36.8763713,57.6920567 36.7103549,57.8027344 C36.5443384,57.913412 36.3734417,58.0566397 36.1976595,58.2324219 C36.0218774,58.408204 35.8363324,58.6263008 35.6410189,58.8867188 L35.6410189,61.7773438 C35.9860727,62.2200543 36.3164731,62.556965 36.6322299,62.7880859 C36.9479866,63.0192069 37.278387,63.1347656 37.6234408,63.1347656 C37.9424528,63.1347656 38.2126324,63.0533862 38.4339877,62.890625 C38.6553429,62.7278638 38.8392604,62.5162773 38.9857455,62.2558594 C39.1322306,61.9954414 39.2380238,61.6992204 39.3031283,61.3671875 C39.3682328,61.0351546 39.4007845,60.7031267 39.4007845,60.3710938 Z M46.2873063,64.6679688 C46.2873063,64.7330732 46.2677753,64.7900388 46.2287126,64.8388672 C46.1896499,64.8876956 46.1229188,64.9283853 46.0285173,64.9609375 C45.9341158,64.9934897 45.8087915,65.0179036 45.6525407,65.0341797 C45.4962899,65.0504558 45.2977242,65.0585938 45.0568376,65.0585938 C44.815951,65.0585938 44.6173852,65.0504558 44.4611345,65.0341797 C44.3048837,65.0179036 44.1795594,64.9934897 44.0851579,64.9609375 C43.9907564,64.9283853 43.9240253,64.8876956 43.8849626,64.8388672 C43.8458999,64.7900388 43.8263688,64.7330732 43.8263688,64.6679688 L43.8263688,51.8261719 C43.8263688,51.7610674 43.8458999,51.7024742 43.8849626,51.6503906 C43.9240253,51.598307 43.9907564,51.5543622 44.0851579,51.5185547 C44.1795594,51.4827472 44.3048837,51.4550782 44.4611345,51.4355469 C44.6173852,51.4160155 44.815951,51.40625 45.0568376,51.40625 C45.2977242,51.40625 45.4962899,51.4160155 45.6525407,51.4355469 C45.8087915,51.4550782 45.9341158,51.4827472 46.0285173,51.5185547 C46.1229188,51.5543622 46.1896499,51.598307 46.2287126,51.6503906 C46.2677753,51.7024742 46.2873063,51.7610674 46.2873063,51.8261719 L46.2873063,64.6679688 Z M56.9140625,64.6679688 C56.9140625,64.7330732 56.8977866,64.7900388 56.8652344,64.8388672 C56.8326821,64.8876956 56.7757166,64.9283853 56.6943359,64.9609375 C56.6129553,64.9934897 56.5055345,65.0179036 56.3720703,65.0341797 C56.2386061,65.0504558 56.0709646,65.0585938 55.8691406,65.0585938 C55.6542958,65.0585938 55.4801439,65.0504558 55.3466797,65.0341797 C55.2132155,65.0179036 55.1074223,64.9934897 55.0292969,64.9609375 C54.9511715,64.9283853 54.8958335,64.8876956 54.8632812,64.8388672 C54.830729,64.7900388 54.8144531,64.7330732 54.8144531,64.6679688 L54.8144531,63.6621094 C54.3326799,64.1829453 53.8427759,64.5735664 53.3447266,64.8339844 C52.8466772,65.0944023 52.3307318,65.2246094 51.796875,65.2246094 C51.1979137,65.2246094 50.694989,65.1269541 50.2880859,64.9316406 C49.8811829,64.7363271 49.5524101,64.4694027 49.3017578,64.1308594 C49.0511055,63.792316 48.8720708,63.4000673 48.7646484,62.9541016 C48.657226,62.5081358 48.6035156,61.9531283 48.6035156,61.2890625 L48.6035156,55.9570312 C48.6035156,55.8919268 48.6214191,55.8349612 48.6572266,55.7861328 C48.693034,55.7373044 48.7581375,55.6966147 48.8525391,55.6640625 C48.9469406,55.6315103 49.0738924,55.6070964 49.2333984,55.5908203 C49.3929044,55.5745442 49.5898426,55.5664062 49.8242187,55.5664062 C50.0651054,55.5664062 50.2636711,55.5745442 50.4199219,55.5908203 C50.5761727,55.6070964 50.7014969,55.6315103 50.7958984,55.6640625 C50.8903,55.6966147 50.9570311,55.7373044 50.9960937,55.7861328 C51.0351564,55.8349612 51.0546875,55.8919268 51.0546875,55.9570312 L51.0546875,60.8789062 C51.0546875,61.3346377 51.0839841,61.6829415 51.1425781,61.9238281 C51.2011722,62.1647147 51.2906895,62.3714184 51.4111328,62.5439453 C51.5315761,62.7164722 51.6845694,62.8499344 51.8701172,62.9443359 C52.055665,63.0387375 52.2721342,63.0859375 52.5195312,63.0859375 C52.8320328,63.0859375 53.1461573,62.9720063 53.4619141,62.7441406 C53.7776708,62.5162749 54.1145815,62.184247 54.4726562,61.7480469 L54.4726562,55.9570312 C54.4726562,55.8919268 54.4905597,55.8349612 54.5263672,55.7861328 C54.5621747,55.7373044 54.6272782,55.6966147 54.7216797,55.6640625 C54.8160812,55.6315103 54.9414055,55.6070964 55.0976562,55.5908203 C55.253907,55.5745442 55.4524728,55.5664062 55.6933594,55.5664062 C55.934246,55.5664062 56.1328117,55.5745442 56.2890625,55.5908203 C56.4453133,55.6070964 56.56901,55.6315103 56.6601562,55.6640625 C56.7513025,55.6966147 56.8164061,55.7373044 56.8554687,55.7861328 C56.8945314,55.8349612 56.9140625,55.8919268 56.9140625,55.9570312 L56.9140625,64.6679688 Z M67.3455062,60.0585938 C67.3455062,60.3580744 67.2787751,60.5794264 67.1453109,60.7226562 C67.0118466,60.8658861 66.8279292,60.9375 66.593553,60.9375 L61.2908187,60.9375 C61.2908187,61.3085956 61.3347635,61.6455063 61.4226546,61.9482422 C61.5105457,62.2509781 61.6505182,62.508137 61.8425765,62.7197266 C62.0346347,62.9313162 62.2820281,63.0924474 62.584764,63.203125 C62.8874999,63.3138026 63.250452,63.3691406 63.6736312,63.3691406 C64.1033208,63.3691406 64.4809212,63.3382165 64.8064437,63.2763672 C65.1319661,63.2145179 65.4135388,63.1461592 65.6511702,63.0712891 C65.8888016,62.9964189 66.0857398,62.9280602 66.2419905,62.8662109 C66.3982413,62.8043617 66.5251932,62.7734375 66.6228499,62.7734375 C66.681444,62.7734375 66.7302716,62.7848306 66.7693343,62.8076172 C66.808397,62.8304038 66.8409487,62.8710935 66.8669905,62.9296875 C66.8930323,62.9882815 66.9109358,63.0712885 66.9207015,63.1787109 C66.9304672,63.2861333 66.9353499,63.4212231 66.9353499,63.5839844 C66.9353499,63.7272143 66.9320947,63.8492833 66.9255843,63.9501953 C66.9190738,64.0511073 66.9093083,64.1373694 66.8962874,64.2089844 C66.8832665,64.2805993 66.8637355,64.3408201 66.8376937,64.3896484 C66.8116519,64.4384768 66.7774725,64.4856769 66.7351546,64.53125 C66.6928367,64.5768231 66.5772779,64.6386715 66.3884749,64.7167969 C66.1996719,64.7949223 65.9587889,64.8714189 65.6658187,64.9462891 C65.3728485,65.0211592 65.0375653,65.0862627 64.6599593,65.1416016 C64.2823532,65.1969404 63.8787114,65.2246094 63.4490218,65.2246094 C62.6742783,65.2246094 61.9955742,65.1269541 61.412889,64.9316406 C60.8302038,64.7363271 60.343555,64.4401062 59.952928,64.0429688 C59.5623011,63.6458313 59.2709629,63.1445343 59.0789046,62.5390625 C58.8868464,61.9335907 58.7908187,61.2239624 58.7908187,60.4101562 C58.7908187,59.6354128 58.8917291,58.9371776 59.093553,58.3154297 C59.295377,57.6936818 59.5883428,57.1663433 59.9724593,56.7333984 C60.3565758,56.3004536 60.8236935,55.9700532 61.3738265,55.7421875 C61.9239594,55.5143218 62.5440704,55.4003906 63.234178,55.4003906 C63.9633484,55.4003906 64.5867145,55.5078114 65.1042952,55.7226562 C65.6218759,55.9375011 66.0466764,56.2353497 66.3787093,56.6162109 C66.7107422,56.9970722 66.9548804,57.4479141 67.1111312,57.96875 C67.2673819,58.4895859 67.3455062,59.0559865 67.3455062,59.6679688 L67.3455062,60.0585938 Z M64.9626937,59.3554688 C64.982225,58.6653611 64.84388,58.1233744 64.5476546,57.7294922 C64.2514292,57.33561 63.794077,57.1386719 63.1755843,57.1386719 C62.8630827,57.1386719 62.5912755,57.197265 62.3601546,57.3144531 C62.1290337,57.4316412 61.9369783,57.5895172 61.7839827,57.7880859 C61.6309872,57.9866546 61.5138008,58.2210273 61.4324202,58.4912109 C61.3510396,58.7613946 61.3038396,59.0494776 61.2908187,59.3554688 L64.9626937,59.3554688 Z" id="blue" fill="#FFFFFF"/>
                        </g>
                        
                    </g>
                </g>
            </g>
        </g>
    </g>
</svg>